<svg id="Capa_1" data-name="Capa 1" xmlns="http://www.w3.org/2000/svg" viewBox="0 0 100 50.04"><defs><style>.cls-1{fill:#fff;}</style></defs><title>icon_plugin</title><path class="cls-1" d="M68.93,45.79A34.67,34.67,0,0,1,53.6,50.37L39.37,76H27.08l.2-24.69L12.41,76H.12l3.3-49H16.64L13.35,57.59,28.06,26.84h8.17l1,32.35,5.87-12.76C37.55,39.55,39.37,26,55.27,26c4.76,0,7.16,6.05,4.58,13l-2.58,4.89a43.18,43.18,0,0,0,10.48-2.31c1.14-.47,3.3-.83,3.94,1C72,43.85,69.76,45.52,68.93,45.79ZM45.74,41.11l2.58-5.59c.47-1.29,1.65-4.43-.82-4.43C45.23,31.09,43,37.35,45.74,41.11Z" transform="translate(-0.12 -26)"/><path class="cls-1" d="M67.35,26H87.72a11.08,11.08,0,0,1,5.21,1.2,12.13,12.13,0,0,1,3.92,3.16,14.47,14.47,0,0,1,2.43,4.52,16.76,16.76,0,0,1,.84,5.21,17.4,17.4,0,0,1-1.56,7.14,21.23,21.23,0,0,1-4.18,6.35,22.52,22.52,0,0,1-6.12,4.54,16.2,16.2,0,0,1-7.44,1.76H71.65L68.27,76H56.71ZM82.22,49.82a4.44,4.44,0,0,0,2.16-.6,6.53,6.53,0,0,0,2-1.76,10.23,10.23,0,0,0,1.4-2.74,11.51,11.51,0,0,0,.53-3.63,5.64,5.64,0,0,0-1-3.74,3.25,3.25,0,0,0-2.48-1.2h-8l-2.9,13.67Z" transform="translate(-0.12 -26)"/></svg>